<?xml version="1.0" encoding="utf-8"?>
<!-- Svg Vector Icons : http://www.sfont.cn -->
<!DOCTYPE svg PUBLIC "-//W3C//DTD SVG 1.1//EN" "http://www.w3.org/Graphics/SVG/1.1/DTD/svg11.dtd">
<svg version="1.1" xmlns="http://www.w3.org/2000/svg" xmlns:xlink="http://www.w3.org/1999/xlink" x="0px" y="0px" viewBox="0 0 1000 1000" enable-background="new 0 0 1000 1000" xml:space="preserve">
<metadata> Svg Vector Icons : http://www.sfont.cn </metadata>
<g><path d="M988.9,493.2c-0.3-1.3-0.1-2.6-0.6-3.9c-0.2-0.6-0.6-0.8-0.8-1.3c-0.3-0.7-0.2-1.6-0.6-2.2c-88.9-170.2-282.5-292-486.8-292c-204.3,0-397.9,121.7-486.9,291.8c-0.4,0.7-0.3,1.5-0.6,2.3c-0.2,0.5-0.6,0.7-0.8,1.3c-0.5,1.3-0.3,2.7-0.6,4c-0.6,2.3-1.1,4.5-1.1,6.9c0,2.4,0.6,4.5,1.1,6.9c0.3,1.3,0.1,2.7,0.6,4c0.2,0.5,0.6,0.8,0.8,1.3c0.3,0.7,0.2,1.6,0.6,2.3c89,170.2,282.6,292,486.9,292c204.2,0,397.9-121.7,486.8-291.8c0.5-0.7,0.4-1.5,0.6-2.2c0.2-0.5,0.6-0.8,0.8-1.3c0.5-1.3,0.3-2.6,0.6-3.9c0.5-2.4,1.1-4.6,1.1-6.9C990,497.8,989.4,495.6,988.9,493.2z M500,744.9c-172.2,0-340.8-97.8-424.8-245C159.7,352.5,328,255,500,255c172.1,0,340.8,97.8,424.7,245C840.3,647.5,672,744.9,500,744.9z"/><path d="M500,377.5c-0.1,0-0.1,0-0.2,0c-67.6,0.1-122.4,54.9-122.4,122.5c0,8.4,6.9,15.3,15.3,15.3c8.4,0,15.3-6.9,15.3-15.3c0-50.7,41.3-91.9,92-91.9v0c8.4,0,15.3-6.9,15.3-15.3C515.3,384.4,508.5,377.5,500,377.5z"/><path d="M499.3,285.6c-118.6,0-214.7,96.1-214.7,214.6c0,118.5,96.1,214.5,214.7,214.5c118.5,0,214.7-96.1,214.7-214.5C713.9,381.6,617.8,285.6,499.3,285.6z M499.3,684c-101.5,0-184-82.5-184-183.9c0-101.4,82.5-183.9,184-183.9c101.5,0,184,82.5,184,183.9C683.3,601.6,600.8,684,499.3,684z"/></g>
</svg>