<?xml version="1.0" standalone="no"?><!DOCTYPE svg PUBLIC "-//W3C//DTD SVG 1.1//EN" "http://www.w3.org/Graphics/SVG/1.1/DTD/svg11.dtd"><svg t="1537851667814" class="icon" style="" viewBox="0 0 1024 1024" version="1.1" xmlns="http://www.w3.org/2000/svg" p-id="2561" xmlns:xlink="http://www.w3.org/1999/xlink" width="200" height="200"><defs><style type="text/css"></style></defs><path d="M465.408 533.0944h119.9104V573.44a45.6704 45.6704 0 0 0 45.4656 45.056h9.1136a45.6704 45.6704 0 0 0 45.568-45.056v-40.3456H808.96a34.304 34.304 0 0 0 34.2016-34.2016A34.304 34.304 0 0 0 808.96 464.6912H686.08v-49.5616h122.88a34.304 34.304 0 0 0 33.792-34.2016 34.304 34.304 0 0 0-33.792-34.2016h-83.1488L819.2 192.4096a45.6704 45.6704 0 0 0-15.2576-62.5664l-7.7824-4.7104a45.6704 45.6704 0 0 0-62.5664 15.2576l-93.184 154.112h-6.7584l-93.696-154.112a45.6704 45.6704 0 0 0-62.5664-15.2576l-7.7824 4.7104a45.6704 45.6704 0 0 0-15.2576 62.5664l93.5936 154.112h-82.5344a34.304 34.304 0 0 0-34.2016 34.2016 34.304 34.304 0 0 0 34.2016 34.2016h119.9104v49.5616H465.408a34.304 34.304 0 0 0-34.2016 34.2016 34.304 34.304 0 0 0 34.2016 34.4064z" p-id="2562"></path><path d="M34.7136 513.3312l162.2016 0 0 426.9056-162.2016 0 0-426.9056Z" p-id="2563"></path><path d="M694.5792 755.2l12.1856-6.5536-12.1856 6.5536zM981.6064 677.376a66.2528 66.2528 0 0 0-89.3952-27.3408L706.56 748.7488a103.0144 103.0144 0 0 1-7.7824 60.8256 80.384 80.384 0 0 1-73.5232 47.4112 125.3376 125.3376 0 0 1-44.544-8.192l-152.7808-82.5344 34.0992-2.56 129.7408 67.3792a65.7408 65.7408 0 0 0 30.72 7.4752 66.56 66.56 0 0 0 59.0848-35.7376 65.9456 65.9456 0 0 0 6.2464-42.9056v-0.8192a66.2528 66.2528 0 0 0-34.304-45.7728L362.496 562.4832a65.8432 65.8432 0 0 0-42.8032-6.144h-0.9216l-99.84 16.0768v310.1696H343.04l293.6832 40.96a48.3328 48.3328 0 0 0 18.6368-1.1264 65.536 65.536 0 0 0 19.0464-6.656l279.8592-149.0944a66.2528 66.2528 0 0 0 27.3408-89.2928z" p-id="2564"></path></svg>