<?xml version="1.0" standalone="no"?><!DOCTYPE svg PUBLIC "-//W3C//DTD SVG 1.1//EN" "http://www.w3.org/Graphics/SVG/1.1/DTD/svg11.dtd"><svg t="1537851731710" class="icon" style="" viewBox="0 0 1024 1024" version="1.1" xmlns="http://www.w3.org/2000/svg" p-id="3587" xmlns:xlink="http://www.w3.org/1999/xlink" width="200" height="200"><defs><style type="text/css"></style></defs><path d="M507.542588 70.806588C298.977882 71.107765 121.133176 216.124235 78.305882 420.864c-1.957647 9.366588-3.132235 18.883765-4.909176 28.280471-2.590118 13.552941-13.161412 21.082353-26.413177 19.094588-12.016941-1.807059-20.269176-13.432471-18.401882-26.413177 13.462588-93.936941 50.567529-177.362824 112.880941-248.982588 76.288-87.672471 172.122353-141.763765 286.750118-160.948706a484.050824 484.050824 0 0 1 551.092706 364.363294c61.771294 255.759059-99.659294 518.384941-355.930353 579.011765-231.122824 54.723765-462.546824-58.970353-558.501647-274.432a479.051294 479.051294 0 0 1-36.291765-128.030118c-1.867294-12.980706 6.264471-24.636235 18.281412-26.533647 13.221647-2.048 24.425412 5.391059 26.443294 19.004236 6.565647 44.062118 17.859765 86.799059 37.647059 126.735058 66.56 134.264471 173.146353 217.569882 320.752941 244.645648 232.568471 42.706824 457.426824-109.718588 505.976471-340.992 48.941176-233.110588-103.363765-466.311529-336.112942-514.831059a467.696941 467.696941 0 0 0-94.027294-10.029177z" fill="" p-id="3588"></path><path d="M407.100235 522.541176l-43.248941 103.122824c-14.576941 34.816-29.123765 69.662118-43.791059 104.478118-4.638118 11.023059-13.462588 16.173176-24.545882 14.938353a21.624471 21.624471 0 0 1-19.184941-18.582589 29.304471 29.304471 0 0 1 2.078117-14.245647c31.292235-75.264 62.765176-150.407529 94.358589-225.520941 5.752471-13.733647 16.896-18.130824 31.984941-13.101176l192.12047 64 9.306353 3.011764c1.897412-4.397176 3.584-8.372706 5.180236-12.438588 31.171765-79.751529 62.283294-159.503059 93.485176-239.254588 4.939294-12.679529 14.305882-18.974118 25.298824-17.257412 15.480471 2.409412 23.582118 16.835765 17.709176 32.225882-12.167529 31.623529-24.636235 63.156706-37.014588 94.72l-68.367059 174.893177c-6.656 16.956235-16.956235 21.714824-34.424471 15.902118l-192.813176-64.180706c-2.409412-0.873412-4.848941-1.656471-8.131765-2.710589z" fill="" p-id="3589"></path></svg>