<?xml version="1.0" standalone="no"?><!DOCTYPE svg PUBLIC "-//W3C//DTD SVG 1.1//EN" "http://www.w3.org/Graphics/SVG/1.1/DTD/svg11.dtd"><svg t="1537851607410" class="icon" style="" viewBox="0 0 1024 1024" version="1.1" xmlns="http://www.w3.org/2000/svg" p-id="1855" xmlns:xlink="http://www.w3.org/1999/xlink" width="200" height="200"><defs><style type="text/css"></style></defs><path d="M572.111828 604.34943l89.195858-145.181018c-2.476908-2.303725-13.793153 0-30.790176 0-27.923609 0-31.097273 1.515344-48.660158 29.052314l-71.347021 116.128704c-0.438997 0.708839-0.874973 1.410629-1.311956 2.100337-0.462155-0.757168-0.925316-1.521385-1.387471-2.296677l-69.667557-116.950313c-17.137985-27.728276-20.231099-29.242613-47.479096-29.242613-16.631528 0-27.696056-2.332925-30.086372 0l87.082432 146.192925c8.260386 13.822353 13.5656 25.404413 35.231493 28.4351-0.104715 0.259773-0.197347 0.51854-0.289979 0.78234l-81.938318 0c-11.064527 0-20.05691 8.73563-20.05691 19.489034 0 10.795692 8.99339 19.499103 20.05691 19.499103l80.201462 0 0 58.462067-80.201462 0c-11.064527 0-20.05691 8.73563-20.05691 19.496082 0 10.788644 8.99339 19.492054 20.05691 19.492054l80.201462 0 0 68.237797c0 16.129099 13.460885 29.219454 30.087379 29.219454 16.570109 0 30.0612-13.090356 30.0612-29.219454L541.013549 769.809877l80.171256 0c11.069562 0 20.057917-8.704417 20.057917-19.492054 0-10.761459-8.988355-19.496082-20.057917-19.496082l-80.171256 0 0-58.462067 80.171256 0c11.069562 0 20.057917-8.711465 20.057917-19.499103 0-10.754411-8.988355-19.489034-20.057917-19.489034l-81.90207 0c-0.14801-0.40577-0.302062-0.81456-0.469203-1.208248C558.70028 628.596946 564.023618 617.506239 572.111828 604.34943L572.111828 604.34943zM785.925337 361.410106c-45.401917-41.915116-170.94287-95.011557-170.94287-127.594974 0-15.314538 18.795298-14.241212 18.795298-32.532067 0-18.260649-18.795298-8.569496-18.795298-25.928993 0-17.361511 19.410498-16.719126 59.470954-146.190911C556.71674-5.50247 559.303397 37.165787 469.604102 79.640724 403.140415 93.014011 401.679443-11.010066 317.708248 29.16316c30.204176 89.72346 73.966904 130.119205 91.696931 158.351924-9.721359 1.041107-17.248741 6.744035-17.248741 13.767981 0 7.046097 7.528389 12.75104 17.248741 13.76194-0.339316 1.380423-0.480278 2.728626-0.873966 4.187585-9.043733 34.216565-123.829269 97.224664-172.625355 142.176509-106.889638 98.633279-325.563323 661.794465 81.80239 661.794465l416.186927 0c371.346845 0 158.918793-563.161186 52.024121-661.794465L785.925337 361.409099zM704.171277 964.717332c-166.360591 5.673729-208.103532 0-208.103532 0s-11.938493 5.673729-178.353456 0c-318.848487 0-142.121131-479.928029-29.723898-584.709275 44.243006-41.434838 170.154489-114.652628 178.361511-146.19796 2.691372-10.028455-29.724905-11.879088-29.724905-29.242613 0-17.330298 20.705336-8.901764 29.724905-29.212406-6.998774-34.497483-47.029024-8.457733-85.741277-87.70468 55.480716 0.110756 46.974653 46.658495 92.843759 27.025478 57.560916-34.892177 65.427614-49.246158 147.736461-46.523574-26.859344 88.264501-63.32325 79.444293-65.681346 107.19472 0 0 20.452611 5.484437 29.723898 29.220461 9.327671 23.76623-19.497089 31.06606 0 58.484218 10.226809 10.059668 107.479665 78.324651 148.661778 116.949306 115.709845 114.391848 274.265157 584.710281-29.723898 584.710281L704.171277 964.717332zM704.171277 964.717332" p-id="1856"></path></svg>